:SAMPLES-PER-SECOND 30
:FRAME-RANGE 1-1770
:FULLY-SPECIFIED
:DEGREES
1383
root  32.3217 39.0226 69.2573 -175.559 -4.88574 -179.84
RightUpLeg  -5.39135 -3.71312 0.668518
RightLeg  15.4289 -2.17954 -0.58543
RightFoot  -15.2306 0.00404587 3.15783
RightToes  -1.33073e-015 0 -3.6325e-017
Spine  -4.39609 1.49677 5.35511
Spine1  8.503 1.76928 -2.25198
HEad  18.5924 19.7876 -5.36987
LeftShoulder1  0.860864 0.383094 -23.4415
LeftArm  1.93774 5.76451 -48.0697
LeftForeArm  37.2594 2.13475 -13.6921
LeftHand  -0.0375311 4.89069 3.29568
RightShoulder  1.66232 2.01623 25.16
RightArm  -23.8852 8.96595 49.4113
RightForeArm  72.8733 -5.21372 3.64958
RightHand  0.335335 -7.74585 -17.3332
LeftUpLeg  -25.094 3.69614 4.18505
LeftLeg  10.3471 5.00256 1.31043
LeftFoot  -1.02944 0.605764 -6.64144
LeftToes  1.09107e-011 -1.16422e-010 2.98337e-011
1384
root  32.0855 39.0066 68.3767 -175.553 -4.71841 179.93
RightUpLeg  -3.46428 -4.08641 0.0112131
RightLeg  14.5949 -1.70052 -0.432438
RightFoot  -16.0265 0.0254699 3.27616
RightToes  -1.33073e-015 0 -3.6325e-017
Spine  -4.68763 1.69554 4.87357
Spine1  8.72581 2.07085 -2.5617
HEad  18.3981 19.2546 -5.49459
LeftShoulder1  0.842398 0.455264 -23.5445
LeftArm  1.02013 6.86786 -47.7297
LeftForeArm  37.819 3.90357 -13.6292
LeftHand  -0.0327668 5.08204 3.12022
RightShoulder  1.69657 2.19164 24.7727
RightArm  -23.3908 10.8077 50.8429
RightForeArm  71.946 -5.26736 3.74891
RightHand  0.306406 -7.52679 -17.5075
LeftUpLeg  -24.7908 2.80444 4.64493
LeftLeg  3.47103 6.94737 1.5971
LeftFoot  0.314835 0.601162 -5.90645
LeftToes  1.09107e-011 -1.16422e-010 2.98337e-011
1385
root  31.803 38.9496 67.4507 -175.579 -4.56677 179.816
RightUpLeg  -1.42862 -3.98669 -0.481874
RightLeg  13.7528 -1.64813 -0.563612
RightFoot  -16.8821 0.0655005 3.71652
RightToes  -1.33073e-015 0 -3.6325e-017
Spine  -4.99306 1.7538 4.5444
Spine1  8.9637 2.24585 -2.91152
HEad  18.1328 19.0008 -5.47025
LeftShoulder1  0.818151 0.540113 -23.5758
LeftArm  0.384256 7.94131 -47.3408
LeftForeArm  37.9561 5.62342 -13.5734
LeftHand  -0.0304829 5.17452 2.80077
RightShoulder  1.74476 2.3928 24.5225
RightArm  -22.7618 12.4163 52.1195
RightForeArm  70.5787 -5.35224 3.93464
RightHand  0.228218 -7.01181 -17.432
LeftUpLeg  -24.7745 2.44023 4.94085
LeftLeg  -1.29567 7.54304 1.70526
LeftFoot  0.0587287 0.553767 -5.55036
LeftToes  1.09107e-011 -1.16422e-010 2.98337e-011
1386
root  31.473 38.8126 66.4418 -175.913 -4.63898 179.932
RightUpLeg  0.927659 -3.89932 -0.795977
RightLeg  13.2771 -1.71461 -0.766979
RightFoot  -18.0216 0.110258 3.98043
RightToes  -1.33073e-015 0 -3.6325e-017
Spine  -5.17625 1.74416 4.34051
Spine1  9.29457 2.27566 -2.96922
HEad  17.8081 18.5934 -5.3943
LeftShoulder1  0.826168 0.510609 -23.5491
LeftArm  0.0376066 8.80897 -46.9925
LeftForeArm  37.7566 7.24693 -13.5619
LeftHand  -0.0275431 5.34081 2.43812
RightShoulder  1.75887 2.45832 24.4157
RightArm  -22.1354 13.6881 53.1458
RightForeArm  69.2698 -5.43434 4.12254
RightHand  0.0782128 -6.03528 -16.7169
LeftUpLeg  -25.2794 2.68744 5.22754
LeftLeg  -1.89419 6.65374 1.52177
LeftFoot  -3.10959 0.453645 -6.04233
LeftToes  1.09107e-011 -1.16422e-010 2.98337e-011
1387
root  31.0562 38.5805 65.4159 -176.01 -4.76276 179.812
RightUpLeg  2.52745 -3.93214 -1.49977
RightLeg  14.0357 -1.70046 -0.992523
RightFoot  -19.7826 0.213294 4.70541
RightToes  -1.33073e-015 0 -3.6325e-017
Spine  -5.35595 1.76728 4.13876
Spine1  9.36261 2.35574 -3.16985
HEad  17.4628 18.0808 -5.02908
LeftShoulder1  0.848117 0.432856 -23.5114
LeftArm  -0.0180364 9.22208 -46.7095
LeftForeArm  37.7425 7.70436 -13.7388
LeftHand  -0.0230551 5.69545 2.13063
RightShoulder  1.7884 2.54596 24.4688
RightArm  -21.116 14.6462 53.7415
RightForeArm  68.0287 -5.55416 4.55931
RightHand  0.0744582 -5.99481 -17.0298
LeftUpLeg  -26.5913 2.55211 5.08409
LeftLeg  0.820935 4.19165 1.56654
LeftFoot  -3.14561 0.412465 -5.49203
LeftToes  1.09107e-011 -1.16422e-010 2.98337e-011
1388
root  30.5834 38.3255 64.3437 -176.156 -4.47348 179.558
RightUpLeg  4.1769 -3.31261 -2.39516
RightLeg  14.915 -1.83181 -1.28422
RightFoot  -21.5443 0.364561 5.71687
RightToes  -1.33073e-015 0 -3.6325e-017
Spine  -5.58768 2.03475 3.86191
Spine1  9.62373 2.74905 -3.49497
HEad  17.3322 16.9162 -4.51322
LeftShoulder1  0.83295 0.485674 -23.5271
LeftArm  -0.424568 9.34652 -46.6478
LeftForeArm  38.4417 7.65737 -13.8208
LeftHand  -0.0218652 5.88856 1.88045
RightShoulder  1.81442 2.68321 24.1922
RightArm  -20.6303 14.9149 54.3506
RightForeArm  67.3617 -5.6052 4.71549
RightHand  0.0813812 -6.02384 -17.4385
LeftUpLeg  -27.5337 1.86393 4.79894
LeftLeg  5.08275 2.17623 1.70485
LeftFoot  -3.09946 0.409207 -5.41988
LeftToes  1.09107e-011 -1.16422e-010 2.98337e-011
1389
root  30.0814 38.1628 63.2707 -176.306 -3.48557 178.963
RightUpLeg  5.7994 -1.51569 -3.66008
RightLeg  15.5863 -2.41761 -1.50158
RightFoot  -22.4706 0.51857 6.88146
RightToes  -1.33073e-015 0 -3.6325e-017
Spine  -5.66436 2.4035 3.25868
Spine1  9.93689 3.46047 -4.41066
HEad  17.0733 16.0147 -3.8645
LeftShoulder1  0.743226 0.781461 -23.4278
LeftArm  -0.983291 9.83123 -46.5297
LeftForeArm  38.7805 7.67666 -13.7035
LeftHand  -0.0219329 5.98616 1.69906
RightShoulder  1.88323 2.92836 24.1069
RightArm  -20.1441 14.9967 54.601
RightForeArm  67.1491 -4.41378 5.12031
RightHand  0.0448341 -5.78214 -17.2957
LeftUpLeg  -27.8633 0.333138 4.55301
LeftLeg  9.10852 2.97144 2.14005
LeftFoot  -1.10891 0.756008 -8.3606
LeftToes  1.09107e-011 -1.16422e-010 2.98337e-011
1390
root  29.4864 38.0289 62.147 -176.457 -2.89432 178.187
RightUpLeg  6.7184 0.530279 -5.33106
RightLeg  17.9265 -2.92888 -1.44578
RightFoot  -22.9062 0.733277 8.76359
RightToes  -1.33073e-015 0 -3.6325e-017
Spine  -5.45597 2.61438 2.45195
Spine1  9.72757 3.84412 -4.84443
HEad  16.7981 15.1053 -3.10712
LeftShoulder1  0.716416 0.897766 -23.753
LeftArm  -0.553195 10.361 -45.8951
LeftForeArm  37.5793 7.71066 -13.7362
LeftHand  -0.0223768 5.89403 1.77628
RightShoulder  1.90069 2.90563 24.52
RightArm  -19.546 15.3703 54.4821
RightForeArm  67.0503 -4.06824 5.47315
RightHand  0.0320246 -5.68761 -17.6007
LeftUpLeg  -28.2736 -1.20867 3.85648
LeftLeg  12.9478 4.08898 1.95836
LeftFoot  2.21304 0.888538 -7.58335
LeftToes  1.09107e-011 -1.16422e-010 2.98337e-011
1391
root  28.8766 37.9537 60.9922 -176.432 -3.68103 177.57
RightUpLeg  7.4398 1.77772 -6.64865
RightLeg  20.7584 -3.14617 -1.53284
RightFoot  -22.3745 0.969646 11.5814
RightToes  -1.33073e-015 0 -3.6325e-017
Spine  -5.60611 2.47403 1.33931
Spine1  9.73944 3.67452 -4.55257
HEad  16.4792 13.772 -2.41094
LeftShoulder1  0.745516 0.811818 -23.9021
LeftArm  -0.218544 10.3107 -45.8372
LeftForeArm  36.6817 7.73435 -13.7652
LeftHand  -0.022997 5.70512 2.11252
RightShoulder  1.93119 3.04271 24.3336
RightArm  -19.9682 14.836 54.4906
RightForeArm  66.8668 -4.24799 5.27721
RightHand  0.0344101 -5.69355 -18.0051
LeftUpLeg  -28.9713 -2.47017 2.58436
LeftLeg  17.5893 4.29889 1.85713
LeftFoot  0.894064 0.719033 -6.75532
LeftToes  1.09107e-011 -1.16422e-010 2.98337e-011
1392
root  28.2438 37.9658 59.8272 -176.604 -4.39053 177.432
RightUpLeg  7.88434 3.52069 -7.14787
RightLeg  24.2263 -3.30975 -1.84855
RightFoot  -20.4547 1.05607 14.9241
RightToes  -1.33073e-015 0 -3.6325e-017
Spine  -5.87386 2.59987 1.13301
Spine1  10.1915 3.8944 -4.9246
HEad  16.6164 12.3128 -2.01185
LeftShoulder1  0.793871 0.624467 -23.602
LeftArm  -0.577207 9.83706 -46.6116
LeftForeArm  36.6967 7.76203 -13.6321
LeftHand  -0.0241917 5.59786 2.18363
RightShoulder  1.92422 3.02365 24.3134
RightArm  -20.913 13.6835 54.1333
RightForeArm  67.36 -4.78463 4.79252
RightHand  0.0511948 -5.80421 -17.9595
LeftUpLeg  -28.3548 -3.67175 1.4165
LeftLeg  20.0605 4.09205 1.98407
LeftFoot  1.07617 0.543505 -5.0551
LeftToes  1.09107e-011 -1.16422e-010 2.98337e-011
1393
root  27.6009 38.0935 58.7117 -176.534 -4.55875 177.401
RightUpLeg  6.76637 5.65353 -7.43427
RightLeg  29.2703 -3.52307 -2.36772
RightFoot  -16.7834 0.789708 18.8708
RightToes  -1.33073e-015 0 -3.6325e-017
Spine  -6.0639 2.91633 0.899785
Spine1  10.2428 4.21735 -5.25897
HEad  17.5831 11.4582 -1.96095
LeftShoulder1  0.772148 0.69233 -23.5361
LeftArm  -0.80602 9.53684 -47.4415
LeftForeArm  36.8746 7.78639 -13.426
LeftHand  -0.0242656 5.58752 2.20751
RightShoulder  1.95066 3.09296 24.4039
RightArm  -21.7654 12.3732 53.401
RightForeArm  68.3353 -5.51296 4.38071
RightHand  0.0551747 -5.84362 -17.5511
LeftUpLeg  -27.1782 -4.82052 0.364449
LeftLeg  21.1161 4.73327 2.3479
LeftFoot  1.03092 0.199765 -1.90103
LeftToes  1.09107e-011 -1.16422e-010 2.98337e-011
1394
root  26.963 38.249 57.6195 -176.454 -5.22784 177.226
RightUpLeg  3.87292 5.19617 -8.69911
RightLeg  36.7389 -2.48693 -2.25228
RightFoot  -11.1815 -0.105374 20.4375
RightToes  -1.33073e-015 0 -3.6325e-017
Spine  -6.23452 2.93259 0.304889
Spine1  10.2841 4.13255 -5.07259
HEad  18.4684 11.0555 -2.23977
LeftShoulder1  0.791002 0.609171 -23.3127
LeftArm  -0.780772 9.01312 -48.5022
LeftForeArm  37.1299 6.93592 -13.3645
LeftHand  -0.0270052 5.38452 2.28462
RightShoulder  1.96405 3.10496 24.5644
RightArm  -22.6108 11.3685 52.6587
RightForeArm  69.2708 -5.42373 4.05875
RightHand  0.0687913 -5.94387 -17.319
LeftUpLeg  -25.738 -6.31522 -0.82234
LeftLeg  21.9476 5.60485 2.81613
LeftFoot  -0.949105 0.0807871 -0.825614
LeftToes  1.09107e-011 -1.16422e-010 2.98337e-011
